<svg width="348" height="166" viewBox="0 0 348 166" fill="none" xmlns="http://www.w3.org/2000/svg">
<path d="M146.722 78.9399H134.894V47.3986C134.894 43.216 133.233 39.2046 130.275 36.2471C127.318 33.2895 123.306 31.628 119.124 31.628H87.5823V19.8C87.5823 14.5717 85.5053 9.55752 81.8084 5.86056C78.1114 2.1636 73.0973 0.0866699 67.869 0.0866699C62.6407 0.0866699 57.6265 2.1636 53.9296 5.86056C50.2326 9.55752 48.1557 14.5717 48.1557 19.8V31.628H16.6144C12.4318 31.628 8.42043 33.2895 5.46286 36.2471C2.50529 39.2046 0.84375 43.216 0.84375 47.3986V77.3628H12.6717C24.4997 77.3628 33.9621 86.8252 33.9621 98.6532C33.9621 110.481 24.4997 119.944 12.6717 119.944H0.84375V149.908C0.84375 154.09 2.50529 158.102 5.46286 161.059C8.42043 164.017 12.4318 165.678 16.6144 165.678H46.5786V153.85C46.5786 142.022 56.041 132.56 67.869 132.56C79.697 132.56 89.1593 142.022 89.1593 153.85V165.678H119.124C123.306 165.678 127.318 164.017 130.275 161.059C133.233 158.102 134.894 154.09 134.894 149.908V118.366H146.722C151.95 118.366 156.965 116.29 160.662 112.593C164.359 108.896 166.435 103.881 166.435 98.6532C166.435 93.4249 164.359 88.4107 160.662 84.7138C156.965 81.0168 151.95 78.9399 146.722 78.9399Z" fill="white"/>
<path fill-rule="evenodd" clip-rule="evenodd" d="M268.59 31.6282V19.8002C268.59 14.5719 266.513 9.55777 262.816 5.86081C259.119 2.16385 254.105 0.0869143 248.877 0.0869141C243.648 0.0869138 238.634 2.16385 234.937 5.86081C231.24 9.55777 229.163 14.5719 229.163 19.8002V31.6282H197.622C193.44 31.6282 189.428 33.2897 186.471 36.2473C183.513 39.2049 181.852 43.2162 181.852 47.3988L181.852 77.3631H181.855V119.944H181.852L181.852 149.908C181.852 154.091 183.513 158.102 186.471 161.06C189.428 164.017 193.44 165.679 197.622 165.679H227.586V153.851C227.586 142.023 237.049 132.56 248.877 132.56C260.705 132.56 270.167 142.023 270.167 153.851V165.679H300.131C304.314 165.679 308.325 164.017 311.283 161.06C314.24 158.102 315.902 154.091 315.902 149.908V118.367H327.73C332.958 118.367 337.972 116.29 341.669 112.593C345.366 108.896 347.443 103.882 347.443 98.6534C347.443 93.4251 345.366 88.411 341.669 84.714C337.972 81.0171 332.958 78.9401 327.73 78.9401H315.902V47.3988C315.902 43.2162 314.24 39.2049 311.283 36.2473C308.325 33.2897 304.314 31.6282 300.131 31.6282L268.59 31.6282Z" fill="#DC0B7D"/>
</svg>
