<svg width="310" height="263" viewBox="0 0 310 263" fill="none" xmlns="http://www.w3.org/2000/svg">
<path d="M127.663 178.916H117.369V127.434C117.369 123.794 115.923 120.303 113.349 117.729C110.776 115.155 107.285 113.709 103.644 113.709H76.1945V127.447C76.1945 122.897 74.387 118.533 71.1695 115.316C67.9521 112.099 63.5884 110.291 59.0382 110.291C54.4881 110.291 50.1244 112.099 46.907 115.316C43.6895 118.533 41.882 122.897 41.882 127.447V113.709H14.432C10.7919 113.709 7.30094 115.155 4.72701 117.729C2.15307 120.303 0.707054 123.794 0.707054 127.434V177.543C0.707054 193.138 0.707253 198.713 0.707031 214.601C0.70681 230.489 0.707054 240.678 0.707054 240.678C0.707054 244.318 2.15307 247.809 4.72701 250.383C7.30094 252.957 10.7919 254.403 14.432 254.403H40.5095V244.11C40.5095 233.816 48.7445 225.581 59.0382 225.581C69.332 225.581 77.567 233.816 77.567 244.11V254.403H103.644C107.285 254.403 110.776 252.957 113.349 250.383C115.923 247.809 117.369 244.318 117.369 240.678V213.228H127.663C132.213 213.228 136.577 211.421 139.795 208.203C143.012 204.986 144.819 200.622 144.819 196.072C144.819 191.522 143.012 187.158 139.795 183.941C136.577 180.723 132.213 178.916 127.663 178.916Z" fill="#FF3232"/>
<path d="M244.136 69.613H233.843V42.163C233.843 38.5229 232.397 35.0319 229.823 32.458C227.249 29.884 223.758 28.438 220.118 28.438H192.668V18.1443C192.668 13.5942 190.86 9.2304 187.643 6.01298C184.425 2.79556 180.061 0.988037 175.511 0.988037C170.961 0.988037 166.597 2.79556 163.38 6.01298C160.163 9.2304 158.355 13.5942 158.355 18.1443V28.438H130.905C127.265 28.438 123.774 29.884 121.2 32.458C118.626 35.0319 117.18 38.5229 117.18 42.163V70.9855H127.474C137.768 70.9855 139.817 75.9219 139.817 86.2156C139.817 96.5093 137.768 101.795 127.474 101.795L117.18 100.422L117.18 131.375C117.18 135.016 118.626 138.507 121.2 141.08C123.774 143.654 127.265 145.1 130.905 145.1H156.983V134.807C156.983 124.513 165.218 116.278 175.511 116.278C185.805 116.278 194.04 124.513 194.04 134.807V145.1H220.118C223.758 145.1 227.249 143.654 229.823 141.08C232.397 138.507 233.843 135.016 233.843 131.375V103.925H244.136C248.686 103.925 253.05 102.118 256.268 98.9005C259.485 95.6831 261.293 91.3193 261.293 86.7692C261.293 82.2191 259.485 77.8553 256.268 74.6379C253.05 71.4205 248.686 69.613 244.136 69.613Z" fill="#DC0B7D"/>
<path d="M127.663 69.613H117.369V42.163C117.369 38.5229 115.923 35.0319 113.349 32.458C110.776 29.884 107.285 28.438 103.644 28.438H76.1945V18.1443C76.1945 13.5942 74.3869 9.2304 71.1695 6.01298C67.9521 2.79556 63.5883 0.988037 59.0382 0.988037C54.4881 0.988037 50.1244 2.79556 46.9069 6.01298C43.6895 9.2304 41.882 13.5942 41.882 18.1443V28.438H14.432C10.7919 28.438 7.30092 29.884 4.72699 32.458C2.15305 35.0319 0.707031 38.5229 0.707031 42.163V68.2405H11.0008C21.2945 68.2405 29.5295 76.4755 29.5295 86.7692C29.5295 97.0629 21.2945 105.298 11.0008 105.298H0.707031V131.375C0.707031 135.016 2.15305 138.507 4.72699 141.08C7.30092 143.654 10.7919 145.1 14.432 145.1H40.5095V134.807C40.5095 124.513 48.7445 116.278 59.0382 116.278C69.332 116.278 77.567 124.513 77.567 134.807V145.1H103.644C107.285 145.1 110.776 143.654 113.349 141.08C115.923 138.507 117.369 135.016 117.369 131.375V103.925H127.663C132.213 103.925 136.577 102.118 139.794 98.9005C143.012 95.6831 144.819 91.3193 144.819 86.7692C144.819 82.2191 143.012 77.8553 139.794 74.6379C136.577 71.4205 132.213 69.613 127.663 69.613Z" fill="white"/>
<path d="M280.194 167.106L270.035 168.765L266.48 146.996C265.893 143.403 264.909 139.839 261.954 137.713C258.998 135.588 254.515 137.033 250.922 137.619L225.336 141.798L223.688 131.704C222.955 127.214 219.671 121.748 215.977 119.091C212.283 116.434 206.879 115.718 202.388 116.452C197.897 117.185 192.903 119.599 190.246 123.293C187.59 126.987 186.347 132.481 187.08 136.972L188.841 147.758C188.841 147.758 167.432 151.457 162.654 152.034C157.876 152.611 148.886 150.755 147.064 139.594C147.639 143.122 149.887 156.884 150.474 160.477L154.913 187.659L165.195 185.98C173.866 184.564 183.376 189.919 185.035 200.078C186.451 208.749 180.59 218.01 170.431 219.669L160.408 221.306L164.852 248.523C165.439 252.115 167.429 255.328 170.384 257.453C173.339 259.579 177.017 260.443 180.61 259.856L206.346 255.653L204.687 245.494C203.028 235.335 209.828 225.88 219.988 224.221C230.147 222.562 239.601 229.362 241.26 239.521L242.919 249.681L268.656 245.478C272.249 244.891 275.461 242.901 277.586 239.946C279.712 236.991 280.576 233.313 279.989 229.72L275.565 202.629L285.724 200.97C290.215 200.236 294.23 197.749 296.887 194.055C299.544 190.361 300.625 185.763 299.891 181.273C299.158 176.782 296.671 172.767 292.977 170.11C289.283 167.453 284.685 166.373 280.194 167.106Z" fill="#0098A6"/>
</svg>
