<svg width="279" height="121" viewBox="0 0 279 121" fill="none" xmlns="http://www.w3.org/2000/svg">
<g style="mix-blend-mode:multiply">
<circle cx="139.547" cy="60.6011" r="59.7566" fill="#F9AF4C"/>
</g>
<g style="mix-blend-mode:multiply">
<path fill-rule="evenodd" clip-rule="evenodd" d="M100.233 16.2959C88.1597 27.2298 80.5757 43.0298 80.5757 60.6011C80.5757 78.1724 88.1597 93.9723 100.233 104.906C89.6301 114.508 75.5649 120.358 60.1335 120.358C27.1309 120.358 0.376953 93.6037 0.376953 60.6011C0.376953 27.5984 27.1309 0.844482 60.1335 0.844482C75.5649 0.844482 89.6301 6.69369 100.233 16.2959Z" fill="#DC0B7D"/>
<path fill-rule="evenodd" clip-rule="evenodd" d="M100.233 16.2959C88.1597 27.2298 80.5757 43.0298 80.5757 60.6011C80.5757 78.1724 88.1597 93.9723 100.233 104.906C89.6301 114.508 75.5649 120.358 60.1335 120.358C27.1309 120.358 0.376953 93.6037 0.376953 60.6011C0.376953 27.5984 27.1309 0.844482 60.1335 0.844482C75.5649 0.844482 89.6301 6.69369 100.233 16.2959Z" fill="#DC0B7D"/>
</g>
<g style="mix-blend-mode:multiply">
<path fill-rule="evenodd" clip-rule="evenodd" d="M178.862 16.2959C190.935 27.2298 198.519 43.0298 198.519 60.6011C198.519 78.1724 190.935 93.9723 178.862 104.906C189.465 114.508 203.53 120.358 218.961 120.358C251.964 120.358 278.718 93.6037 278.718 60.6011C278.718 27.5984 251.964 0.844482 218.961 0.844482C203.53 0.844482 189.465 6.69369 178.862 16.2959Z" fill="#DC0B7D"/>
<path fill-rule="evenodd" clip-rule="evenodd" d="M178.862 16.2959C190.935 27.2298 198.519 43.0298 198.519 60.6011C198.519 78.1724 190.935 93.9723 178.862 104.906C189.465 114.508 203.53 120.358 218.961 120.358C251.964 120.358 278.718 93.6037 278.718 60.6011C278.718 27.5984 251.964 0.844482 218.961 0.844482C203.53 0.844482 189.465 6.69369 178.862 16.2959Z" fill="#0098A6"/>
</g>
</svg>
