<svg width="301" height="166" viewBox="0 0 301 166" fill="none" xmlns="http://www.w3.org/2000/svg">
<path d="M280.667 78.9399H268.839V47.3986C268.839 43.216 267.177 39.2046 264.22 36.2471C261.262 33.2895 257.251 31.628 253.068 31.628H221.527V19.8C221.527 14.5717 219.45 9.55752 215.753 5.86056C212.056 2.1636 207.042 0.0866699 201.814 0.0866699C196.585 0.0866699 191.571 2.1636 187.874 5.86056C184.177 9.55752 182.1 14.5717 182.1 19.8V31.628H150.559C146.377 31.628 142.365 33.2895 139.408 36.2471C136.45 39.2046 134.789 43.216 134.789 47.3986V80.5169H146.617C158.445 80.5169 160.799 86.1891 160.799 98.0171C160.799 109.845 158.445 115.918 146.617 115.918L134.789 114.341L134.789 149.908C134.789 154.09 136.45 158.102 139.408 161.059C142.365 164.017 146.377 165.678 150.559 165.678H180.523V153.85C180.523 142.022 189.986 132.56 201.814 132.56C213.642 132.56 223.104 142.022 223.104 153.85V165.678H253.068C257.251 165.678 261.262 164.017 264.22 161.059C267.177 158.102 268.839 154.09 268.839 149.908V118.366H280.667C285.895 118.366 290.909 116.29 294.606 112.593C298.303 108.896 300.38 103.881 300.38 98.6532C300.38 93.4249 298.303 88.4107 294.606 84.7138C290.909 81.0168 285.895 78.9399 280.667 78.9399Z" fill="#DC0B7D"/>
<path d="M146.834 78.9399H135.006V47.3986C135.006 43.216 133.344 39.2046 130.387 36.2471C127.429 33.2895 123.418 31.628 119.235 31.628H87.6941V19.8C87.6941 14.5717 85.6172 9.55752 81.9202 5.86056C78.2232 2.1636 73.2091 0.0866699 67.9808 0.0866699C62.7525 0.0866699 57.7383 2.1636 54.0414 5.86056C50.3444 9.55752 48.2675 14.5717 48.2675 19.8V31.628H16.7262C12.5436 31.628 8.53225 33.2895 5.57468 36.2471C2.61711 39.2046 0.955566 43.216 0.955566 47.3986V77.3628H12.7835C24.6115 77.3628 34.0739 86.8252 34.0739 98.6532C34.0739 110.481 24.6115 119.944 12.7835 119.944H0.955566V149.908C0.955566 154.09 2.61711 158.102 5.57468 161.059C8.53225 164.017 12.5436 165.678 16.7262 165.678H46.6904V153.85C46.6904 142.022 56.1528 132.56 67.9808 132.56C79.8088 132.56 89.2711 142.022 89.2711 153.85V165.678H119.235C123.418 165.678 127.429 164.017 130.387 161.059C133.344 158.102 135.006 154.09 135.006 149.908V118.366H146.834C152.062 118.366 157.076 116.29 160.773 112.593C164.47 108.896 166.547 103.881 166.547 98.6532C166.547 93.4249 164.47 88.4107 160.773 84.7138C157.076 81.0168 152.062 78.9399 146.834 78.9399Z" fill="white"/>
</svg>
