<svg width="434" height="167" viewBox="0 0 434 167" fill="none" xmlns="http://www.w3.org/2000/svg">
<path d="M413.297 79.33H401.469V47.7887C401.469 43.6061 399.808 39.5948 396.85 36.6372C393.893 33.6796 389.881 32.0181 385.699 32.0181H354.157V20.1901C354.157 14.9618 352.081 9.94766 348.384 6.2507C344.687 2.55374 339.672 0.476807 334.444 0.476807C329.216 0.476807 324.202 2.55374 320.505 6.2507C316.808 9.94766 314.731 14.9618 314.731 20.1901V32.0181H283.19C279.007 32.0181 274.996 33.6796 272.038 36.6372C269.08 39.5948 267.419 43.6061 267.419 47.7887V80.9071H279.247C291.075 80.9071 293.43 86.5792 293.43 98.4072C293.43 110.235 291.075 116.308 279.247 116.308L267.419 114.731L267.419 150.298C267.419 154.481 269.08 158.492 272.038 161.449C274.996 164.407 279.007 166.069 283.19 166.069H313.154V154.241C313.154 142.413 322.616 132.95 334.444 132.95C346.272 132.95 355.735 142.413 355.735 154.241V166.069H385.699C389.881 166.069 393.893 164.407 396.85 161.449C399.808 158.492 401.469 154.481 401.469 150.298V118.757H413.297C418.526 118.757 423.54 116.68 427.237 112.983C430.934 109.286 433.011 104.272 433.011 99.0433C433.011 93.815 430.934 88.8009 427.237 85.1039C423.54 81.4069 418.526 79.33 413.297 79.33Z" fill="#0098A6"/>
<path d="M280.701 79.33H268.873V47.7887C268.873 43.6061 267.212 39.5948 264.254 36.6372C261.297 33.6796 257.285 32.0181 253.103 32.0181H221.561V20.1901C221.561 14.9618 219.484 9.94766 215.787 6.2507C212.09 2.55374 207.076 0.476807 201.848 0.476807C196.62 0.476807 191.606 2.55374 187.909 6.2507C184.212 9.94766 182.135 14.9618 182.135 20.1901V32.0181H150.593C146.411 32.0181 142.399 33.6796 139.442 36.6372C136.484 39.5948 134.823 43.6061 134.823 47.7887V80.9071H146.651C158.479 80.9071 160.833 86.5792 160.833 98.4072C160.833 110.235 158.479 116.308 146.651 116.308L134.823 114.731L134.823 150.298C134.823 154.481 136.484 158.492 139.442 161.449C142.399 164.407 146.411 166.069 150.593 166.069H180.558V154.241C180.558 142.413 190.02 132.95 201.848 132.95C213.676 132.95 223.138 142.413 223.138 154.241V166.069H253.103C257.285 166.069 261.297 164.407 264.254 161.449C267.212 158.492 268.873 154.481 268.873 150.298V118.757H280.701C285.929 118.757 290.944 116.68 294.641 112.983C298.338 109.286 300.414 104.272 300.414 99.0433C300.414 93.815 298.338 88.8009 294.641 85.1039C290.944 81.4069 285.929 79.33 280.701 79.33Z" fill="#DC0B7D"/>
<path d="M146.868 79.33H135.04V47.7887C135.04 43.6061 133.379 39.5948 130.421 36.6372C127.464 33.6796 123.452 32.0181 119.27 32.0181H87.7283V20.1901C87.7283 14.9618 85.6513 9.94766 81.9544 6.2507C78.2574 2.55374 73.2433 0.476807 68.015 0.476807C62.7867 0.476807 57.7725 2.55374 54.0756 6.2507C50.3786 9.94766 48.3017 14.9618 48.3017 20.1901V32.0181H16.7604C12.5778 32.0181 8.56643 33.6796 5.60886 36.6372C2.65129 39.5948 0.989746 43.6061 0.989746 47.7887V77.7529H12.8177C24.6457 77.7529 34.1081 87.2153 34.1081 99.0433C34.1081 110.871 24.6457 120.334 12.8177 120.334H0.989746V150.298C0.989746 154.481 2.65129 158.492 5.60886 161.449C8.56643 164.407 12.5778 166.069 16.7604 166.069H46.7246V154.241C46.7246 142.413 56.187 132.95 68.015 132.95C79.8429 132.95 89.3053 142.413 89.3053 154.241V166.069H119.27C123.452 166.069 127.464 164.407 130.421 161.449C133.379 158.492 135.04 154.481 135.04 150.298V118.757H146.868C152.096 118.757 157.111 116.68 160.808 112.983C164.505 109.286 166.581 104.272 166.581 99.0433C166.581 93.815 164.505 88.8009 160.808 85.1039C157.111 81.4069 152.096 79.33 146.868 79.33Z" fill="white"/>
</svg>
