<svg width="122" height="128" viewBox="0 0 122 128" fill="none" xmlns="http://www.w3.org/2000/svg">
<path d="M121.075 64.6712C110.078 69.7785 101.465 74.0827 95.1081 77.4554C88.7834 80.8923 83.7299 84.4899 79.916 88.3444C76.1339 92.1668 72.9556 97.1135 70.413 103.056C67.8704 108.998 64.5015 117.125 60.2744 127.372C56.8736 117.125 53.9496 110.315 51.407 104.341C48.8644 98.3983 45.6862 93.2589 41.904 88.9868C38.1219 84.7147 33.0685 80.8924 26.712 77.4875C20.3872 74.0827 11.7423 69.8106 0.777344 64.7033C12.6005 59.5961 21.436 55.324 27.3476 51.9192C33.2274 48.5143 38.1219 44.6598 41.904 40.3877C45.718 36.1156 48.8962 31.0405 51.407 25.066C53.9496 19.0914 56.8736 10.9648 60.2744 0.718201C64.5015 10.9648 67.8704 19.0593 70.413 25.066C72.9556 31.0405 76.1339 36.1477 79.916 40.3877C83.7299 44.6598 88.7834 48.5143 95.1081 51.9192C101.465 55.2919 110.11 59.564 121.075 64.6712Z" fill="#DC0B7D"/>
</svg>
