<svg width="53" height="53" viewBox="0 0 53 53" fill="none" xmlns="http://www.w3.org/2000/svg">
<path d="M46.3017 0.118896H5.91503C2.74179 0.118896 0.145508 2.71518 0.145508 5.88842V46.2751C0.145508 49.4512 2.74179 52.0446 5.91503 52.0446H26.1084V31.8513H20.3388V24.7115H26.1084V18.7977C26.1084 12.5551 29.6047 8.17026 36.9724 8.17026L42.1736 8.17603V15.6908H38.7205C35.8531 15.6908 34.7626 17.8429 34.7626 19.8391V24.7144H42.1707L40.5322 31.8513H34.7626V52.0446H46.3017C49.4749 52.0446 52.0712 49.4512 52.0712 46.2751V5.88842C52.0712 2.71518 49.4749 0.118896 46.3017 0.118896Z" fill="#F9AF4C"/>
</svg>
