<svg width="128" height="92" viewBox="0 0 128 92" fill="none" xmlns="http://www.w3.org/2000/svg">
<path d="M41.0354 71.0191L56.2405 60.1026L41.4252 43.1431C49.7101 38.8545 54.486 32.1292 54.486 23.7469C54.486 8.05449 43.862 1.03675 29.6316 1.03675C22.029 1.03675 13.4518 2.88866 4.87457 6.78739L4.97204 6.88486H4.7771L5.65432 68.29H22.3214V47.8216C22.9062 47.8216 23.3936 47.8216 23.9784 47.7242L41.0354 71.0191ZM36.1619 23.6494C36.1619 30.9596 30.8012 34.2735 22.3214 35.1507V17.9963C24.4657 17.2165 26.5126 16.7292 28.4619 16.7292C32.848 16.7292 36.1619 18.971 36.1619 23.6494Z" fill="#F9AF4C"/>
<path d="M61.4413 68.29H99.8439L100.526 51.9153L77.9135 53.3773V44.6052H91.754L91.8515 29.8874L77.816 30.8621L77.7185 20.3355L100.136 21.0178L101.891 2.69372L60.1742 5.32537L61.4413 68.29Z" fill="#F9AF4C"/>
<path d="M109.754 45.3849L125.252 44.7026L127.494 0.0620689H108.487L109.754 45.3849ZM117.065 69.6546C123.108 69.6546 126.129 65.5609 126.129 60.6875C126.129 55.7166 123.108 51.7204 117.065 51.7204C111.216 51.7204 108.097 55.7166 108.097 60.6875C108.097 65.5609 111.022 69.6546 117.065 69.6546Z" fill="#F9AF4C"/>
<path d="M36.2583 71.4517L51.4634 60.5353L36.6481 43.5758C44.933 39.2871 49.7089 32.5618 49.7089 24.1795C49.7089 8.48711 39.0849 1.46938 24.8545 1.46938C17.2519 1.46938 8.67469 3.32128 0.0974684 7.22002L0.194937 7.31749H0L0.877216 68.7226H17.5443V48.2542C18.1291 48.2542 18.6165 48.2542 19.2013 48.1568L36.2583 71.4517ZM31.3848 24.0821C31.3848 31.3922 26.0241 34.7061 17.5443 35.5833V18.4289C19.6886 17.6491 21.7355 17.1618 23.6848 17.1618C28.0709 17.1618 31.3848 19.4036 31.3848 24.0821Z" fill="#0098A6"/>
<path d="M56.6642 68.7226H95.0668L95.7491 52.3479L73.1364 53.8099V45.0378H86.9769L87.0744 30.32L73.0389 31.2947L72.9414 20.7681L95.3592 21.4504L97.1136 3.12634L55.3971 5.75799L56.6642 68.7226Z" fill="#0098A6"/>
<path d="M104.977 45.8175L120.475 45.1353L122.717 0.494694H103.71L104.977 45.8175ZM112.287 70.0872C118.331 70.0872 121.352 65.9935 121.352 61.1201C121.352 56.1492 118.331 52.153 112.287 52.153C106.439 52.153 103.32 56.1492 103.32 61.1201C103.32 65.9935 106.244 70.0872 112.287 70.0872Z" fill="#0098A6"/>
<path d="M2.28275 88.267V85.11H6.67825V84.3451H2.28275V81.3217H7.21251V80.5446H1.38422V89.0441H7.39464V88.267H2.28275ZM9.50673 89.0441H15.165V88.267H10.4053V80.5446H9.50673V89.0441ZM26.1852 89.0441H27.1323L23.2468 80.5446H22.3604L18.4748 89.0441H19.4098L20.4297 86.7735H25.1652L26.1852 89.0441ZM20.7576 86.045L22.7975 81.4795L24.8374 86.045H20.7576ZM34.4059 87.6599C33.7502 88.1335 32.9974 88.3156 32.1838 88.3156C30.0954 88.3156 28.5533 86.81 28.5533 84.7943C28.5533 82.7666 30.0954 81.2731 32.196 81.2731C33.1917 81.2731 34.0416 81.5645 34.758 82.2688L35.3165 81.6981C34.5637 80.8845 33.4466 80.4717 32.1596 80.4717C29.5611 80.4717 27.6669 82.3052 27.6669 84.7943C27.6669 87.2835 29.5611 89.117 32.1474 89.117C33.3252 89.117 34.4666 88.7527 35.268 88.0363V84.7943H34.4059V87.6599ZM37.811 89.0441H38.7096V80.5446H37.811V89.0441ZM43.1264 89.0441H44.0249V81.3217H47.0119V80.5446H40.1394V81.3217H43.1264V89.0441ZM49.3459 88.267V85.11H53.7414V84.3451H49.3459V81.3217H54.2757V80.5446H48.4474V89.0441H54.4578V88.267H49.3459ZM59.7477 89.0441H60.6463V80.5446H59.7477V89.0441ZM69.6286 80.5446V87.4414L64.1524 80.5446H63.4118V89.0441H64.3103V82.1473L69.7743 89.0441H70.515V80.5446H69.6286ZM76.9805 89.117C78.2311 89.117 79.3482 88.692 80.101 87.8663L79.5303 87.2957C78.8382 88.0121 77.9883 88.3156 77.0169 88.3156C74.9649 88.3156 73.4228 86.81 73.4228 84.7943C73.4228 82.7787 74.9649 81.2731 77.0169 81.2731C77.9883 81.2731 78.8382 81.5766 79.5303 82.2809L80.101 81.7102C79.3482 80.8845 78.2311 80.4717 76.9926 80.4717C74.4306 80.4717 72.5364 82.3052 72.5364 84.7943C72.5364 87.2835 74.4306 89.117 76.9805 89.117ZM82.0165 89.0441H87.6748V88.267H82.915V80.5446H82.0165V89.0441ZM92.4366 89.117C94.6101 89.117 95.9215 87.8542 95.9215 85.4136V80.5446H95.0472V85.3772C95.0472 87.3928 94.1001 88.3156 92.4366 88.3156C90.7853 88.3156 89.8382 87.3928 89.8382 85.3772V80.5446H88.9397V85.4136C88.9397 87.8542 90.2632 89.117 92.4366 89.117ZM100.973 89.117C103.146 89.117 104.142 88.0485 104.142 86.7978C104.142 83.7015 98.9084 85.11 98.9084 82.7787C98.9084 81.9288 99.6005 81.2367 101.155 81.2367C101.908 81.2367 102.757 81.4674 103.486 81.9409L103.79 81.2245C103.11 80.751 102.114 80.4717 101.155 80.4717C98.9934 80.4717 98.022 81.5524 98.022 82.803C98.022 85.9479 103.255 84.5151 103.255 86.8464C103.255 87.6842 102.563 88.352 100.973 88.352C99.8555 88.352 98.7748 87.9149 98.1677 87.3199L97.8156 88.0121C98.447 88.6677 99.6976 89.117 100.973 89.117ZM106.099 89.0441H106.998V80.5446H106.099V89.0441ZM115.825 80.5446L112.546 87.9271L109.292 80.5446H108.321L112.085 89.0441H112.971L116.735 80.5446H115.825ZM121.602 89.117C124.151 89.117 126.058 87.2835 126.058 84.7943C126.058 82.3052 124.151 80.4717 121.602 80.4717C119.027 80.4717 117.133 82.3173 117.133 84.7943C117.133 87.2714 119.027 89.117 121.602 89.117ZM121.602 88.3156C119.549 88.3156 118.02 86.8221 118.02 84.7943C118.02 82.7666 119.549 81.2731 121.602 81.2731C123.641 81.2731 125.159 82.7666 125.159 84.7943C125.159 86.8221 123.641 88.3156 121.602 88.3156Z" fill="#424242"/>
</svg>
