<svg width="129" height="92" viewBox="0 0 129 92" fill="none" xmlns="http://www.w3.org/2000/svg">
<path d="M37.0031 71.6951L52.2082 60.7786L37.393 43.8191C45.6778 39.5305 50.4538 32.8052 50.4538 24.4229C50.4538 8.73045 39.8297 1.71272 25.5993 1.71272C17.9968 1.71272 9.41957 3.56463 0.842341 7.46336L0.93981 7.56083H0.744873L1.62209 68.966H18.2892V48.4976C18.874 48.4976 19.3614 48.4976 19.9462 48.4001L37.0031 71.6951ZM32.1297 24.3254C32.1297 31.6355 26.769 34.9495 18.2892 35.8267V18.6722C20.4335 17.8925 22.4803 17.4051 24.4297 17.4051C28.8158 17.4051 32.1297 19.6469 32.1297 24.3254Z" fill="#F9AF4C"/>
<path d="M57.4091 68.966H95.8117L96.4939 52.5913L73.8813 54.0533V45.2811H87.7218L87.8192 30.5634L73.7838 31.5381L73.6863 21.0115L96.1041 21.6938L97.8585 3.36969L56.142 6.00134L57.4091 68.966Z" fill="#F9AF4C"/>
<path d="M105.722 46.0609L121.22 45.3786L123.461 0.738037H104.455L105.722 46.0609ZM113.032 70.3305C119.075 70.3305 122.097 66.2369 122.097 61.3634C122.097 56.3925 119.075 52.3963 113.032 52.3963C107.184 52.3963 104.065 56.3925 104.065 61.3634C104.065 66.2369 106.989 70.3305 113.032 70.3305Z" fill="#F9AF4C"/>
<path d="M3.02762 88.5105V85.3535H7.42312V84.5885H3.02762V81.5651H7.95738V80.788H2.12909V89.2876H8.13952V88.5105H3.02762ZM10.2516 89.2876H15.9099V88.5105H11.1501V80.788H10.2516V89.2876ZM26.9301 89.2876H27.8772L23.9916 80.788H23.1052L19.2197 89.2876H20.1547L21.1746 87.017H25.9101L26.9301 89.2876ZM21.5025 86.2885L23.5424 81.723L25.5823 86.2885H21.5025ZM35.1508 87.9034C34.4951 88.3769 33.7422 88.5591 32.9287 88.5591C30.8402 88.5591 29.2982 87.0534 29.2982 85.0378C29.2982 83.01 30.8402 81.5165 32.9409 81.5165C33.9365 81.5165 34.7865 81.808 35.5029 82.5122L36.0614 81.9415C35.3086 81.128 34.1915 80.7152 32.9044 80.7152C30.306 80.7152 28.4118 82.5486 28.4118 85.0378C28.4118 87.527 30.306 89.3605 32.8923 89.3605C34.0701 89.3605 35.2115 88.9962 36.0129 88.2798V85.0378H35.1508V87.9034ZM38.5559 89.2876H39.4544V80.788H38.5559V89.2876ZM43.8713 89.2876H44.7698V81.5651H47.7568V80.788H40.8843V81.5651H43.8713V89.2876ZM50.0908 88.5105V85.3535H54.4863V84.5885H50.0908V81.5651H55.0205V80.788H49.1922V89.2876H55.2027V88.5105H50.0908ZM60.4926 89.2876H61.3911V80.788H60.4926V89.2876ZM70.3735 80.788V87.6848L64.8973 80.788H64.1566V89.2876H65.0552V82.3908L70.5192 89.2876H71.2599V80.788H70.3735ZM77.7253 89.3605C78.976 89.3605 80.0931 88.9355 80.8459 88.1098L80.2752 87.5391C79.5831 88.2555 78.7331 88.5591 77.7618 88.5591C75.7097 88.5591 74.1677 87.0534 74.1677 85.0378C74.1677 83.0222 75.7097 81.5165 77.7618 81.5165C78.7331 81.5165 79.5831 81.8201 80.2752 82.5244L80.8459 81.9537C80.0931 81.128 78.976 80.7152 77.7375 80.7152C75.1755 80.7152 73.2813 82.5486 73.2813 85.0378C73.2813 87.527 75.1755 89.3605 77.7253 89.3605ZM82.7613 89.2876H88.4196V88.5105H83.6599V80.788H82.7613V89.2876ZM93.1815 89.3605C95.355 89.3605 96.6663 88.0977 96.6663 85.6571V80.788H95.7921V85.6206C95.7921 87.6362 94.845 88.5591 93.1815 88.5591C91.5302 88.5591 90.5831 87.6362 90.5831 85.6206V80.788H89.6845V85.6571C89.6845 88.0977 91.008 89.3605 93.1815 89.3605ZM101.717 89.3605C103.891 89.3605 104.887 88.2919 104.887 87.0413C104.887 83.945 99.6532 85.3535 99.6532 83.0222C99.6532 82.1722 100.345 81.4801 101.9 81.4801C102.652 81.4801 103.502 81.7108 104.231 82.1844L104.534 81.468C103.854 80.9944 102.859 80.7152 101.9 80.7152C99.7382 80.7152 98.7669 81.7958 98.7669 83.0465C98.7669 86.1913 104 84.7585 104 87.0898C104 87.9277 103.308 88.5955 101.717 88.5955C100.6 88.5955 99.5197 88.1584 98.9126 87.5634L98.5604 88.2555C99.1918 88.9112 100.442 89.3605 101.717 89.3605ZM106.844 89.2876H107.743V80.788H106.844V89.2876ZM116.57 80.788L113.291 88.1705L110.037 80.788H109.066L112.83 89.2876H113.716L117.48 80.788H116.57ZM122.346 89.3605C124.896 89.3605 126.803 87.527 126.803 85.0378C126.803 82.5486 124.896 80.7152 122.346 80.7152C119.772 80.7152 117.878 82.5608 117.878 85.0378C117.878 87.5148 119.772 89.3605 122.346 89.3605ZM122.346 88.5591C120.294 88.5591 118.764 87.0656 118.764 85.0378C118.764 83.01 120.294 81.5165 122.346 81.5165C124.386 81.5165 125.904 83.01 125.904 85.0378C125.904 87.0656 124.386 88.5591 122.346 88.5591Z" fill="white"/>
</svg>
