<svg width="349" height="157" viewBox="0 0 349 157" fill="none" xmlns="http://www.w3.org/2000/svg">
<path d="M137.559 151.943H86.1649L67.0087 108.491H56.9634V151.943H10.2411V5.9353H83.8287C117.313 5.9353 134.055 22.9889 134.055 57.0962C134.055 80.4574 126.813 95.8758 112.329 103.351L137.559 151.943ZM56.9634 43.3132V72.5146H67.7095C73.3162 72.5146 77.3655 71.9695 79.8574 70.8793C82.505 69.6334 83.8287 66.9079 83.8287 62.7029V53.1248C83.8287 48.9198 82.505 46.2722 79.8574 45.182C77.3655 43.9361 73.3162 43.3132 67.7095 43.3132H56.9634Z" fill="#F9AF4C"/>
<path d="M248.58 96.8102H201.857V114.565H259.092V151.943H155.135V5.9353H257.924L252.084 43.3132H201.857V62.9365H248.58V96.8102Z" fill="#F9AF4C"/>
<path d="M127.559 151.943H76.1649L57.0087 108.491H46.9634V151.943H0.241089V5.9353H73.8287C107.313 5.9353 124.055 22.9889 124.055 57.0962C124.055 80.4574 116.813 95.8758 102.329 103.351L127.559 151.943ZM46.9634 43.3132V72.5146H57.7095C63.3162 72.5146 67.3655 71.9695 69.8574 70.8793C72.5049 69.6334 73.8287 66.9079 73.8287 62.7029V53.1248C73.8287 48.9198 72.5049 46.2722 69.8574 45.182C67.3655 43.9361 63.3162 43.3132 57.7095 43.3132H46.9634Z" fill="#DC0B7D"/>
<path d="M238.58 96.8102H191.857V114.565H249.092V151.943H145.135V5.9353H247.924L242.084 43.3132H191.857V62.9365H238.58V96.8102Z" fill="#DC0B7D"/>
<path d="M305.298 103.506L301.316 1.29218H348.44L338.484 103.506H305.298Z" fill="#F9AF4C"/>
<circle cx="320.896" cy="137.006" r="19.5799" fill="#F9AF4C"/>
<path d="M296.316 102.506L292.333 0.292175H339.458L329.502 102.506H296.316Z" fill="#DC0B7D"/>
<circle cx="311.913" cy="136.006" r="19.5799" fill="#DC0B7D"/>
</svg>
