<svg fill="none" height="53" viewBox="0 0 53 53" width="53" xmlns="http://www.w3.org/2000/svg"><path d="m26.1751 17.4238c-4.7674 0-8.658 3.8906-8.658 8.658s3.8906 8.6579 8.658 8.6579 8.658-3.8905 8.658-8.6579-3.8906-8.658-8.658-8.658zm25.9675 8.658c0-3.5853.0324-7.1382-.1689-10.717-.2014-4.1568-1.1497-7.84605-4.1894-10.88576-3.0462-3.0462-6.7289-3.987991-10.8858-4.189339-3.5853-.2013482-7.1381-.168873-10.7169-.168873-3.5853 0-7.1381-.0324752-10.7169.168873-4.1569.201348-7.84609 1.149629-10.8858 4.189339-3.04621 3.04621-3.987997 6.72896-4.189345 10.88576-.201349 3.5853-.168873 7.1382-.168873 10.717s-.032476 7.1381.168873 10.7169c.201348 4.1568 1.149635 7.8461 4.189345 10.8858 3.0462 3.0462 6.7289 3.988 10.8858 4.1893 3.5853.2014 7.1381.1689 10.7169.1689 3.5853 0 7.1381.0325 10.7169-.1689 4.1569-.2013 7.8461-1.1496 10.8858-4.1893 3.0462-3.0462 3.988-6.729 4.1894-10.8858.2078-3.5788.1689-7.1316.1689-10.7169zm-25.9675 13.3214c-7.3719 0-13.3214-5.9495-13.3214-13.3214 0-7.372 5.9495-13.3215 13.3214-13.3215 7.372 0 13.3215 5.9495 13.3215 13.3215 0 7.3719-5.9495 13.3214-13.3215 13.3214zm13.8671-24.0773c-1.7212 0-3.1112-1.39-3.1112-3.1112s1.39-3.11114 3.1112-3.11114 3.1111 1.38994 3.1111 3.11114c.0005.4087-.0796.8135-.2358 1.1912-.1561.3777-.3853.7209-.6743 1.0099s-.6321.5181-1.0098.6743-.7825.2363-1.1912.2358z" fill="#f9af4c"/></svg>